
<svg xmlns="http://www.w3.org/2000/svg" width="1280" height="800" viewBox="0 0 1280 800">
  
  <defs>
    <linearGradient id="bg" x1="0" y1="0" x2="1" y2="1">
      <stop offset="0%" stop-color="#FAFBFC"/>
      <stop offset="52%" stop-color="#EFF5FF"/>
      <stop offset="100%" stop-color="#F8F3FF"/>
    </linearGradient>
    <linearGradient id="purple" x1="0" y1="0" x2="1" y2="1">
      <stop offset="0%" stop-color="#7C4DFF"/>
      <stop offset="100%" stop-color="#4B2E83"/>
    </linearGradient>
    <filter id="shadow" x="-20%" y="-20%" width="140%" height="150%">
      <feDropShadow dx="0" dy="18" stdDeviation="18" flood-color="#172033" flood-opacity="0.16"/>
    </filter>
    <filter id="softShadow" x="-30%" y="-30%" width="160%" height="180%">
      <feDropShadow dx="0" dy="10" stdDeviation="12" flood-color="#172033" flood-opacity="0.18"/>
    </filter>
  </defs>

  <rect x="0" y="0" width="1280" height="800" rx="0" fill="#F7F9FC" stroke="none" stroke-width="1" opacity="1"/>
  <g transform="translate(68 56) scale(0.3176470588235294)"><path fill-rule="evenodd" clip-rule="evenodd" d="M30 110L70 0H40L0 110V200H30L60 110H30ZM140 110L100 0H130L170 110V200H140L110 110H140Z" fill="#673AB8"/></g>
  <text x="132" y="91" font-family="Inter, -apple-system, BlinkMacSystemFont, Segoe UI, sans-serif" font-size="34" font-weight="800" fill="#1E2B3A" text-anchor="start" opacity="1">AnnHub</text>
  <text x="68" y="158" font-family="Inter, -apple-system, BlinkMacSystemFont, Segoe UI, sans-serif" font-size="48" font-weight="820" fill="#172033" text-anchor="start" opacity="1">Manage highlights, words, sync, and LLM settings</text>
  <text x="70" y="202" font-family="Inter, -apple-system, BlinkMacSystemFont, Segoe UI, sans-serif" font-size="21" font-weight="450" fill="#526070" text-anchor="start" opacity="1">A focused options surface keeps storage, vocabulary, Logseq, and model configuration together.</text>
  
  <rect x="82" y="250" width="1116" height="456" rx="18" fill="#ffffff" stroke="#D7DCE3" stroke-width="1" opacity="1" filter="url(#shadow)"/>
  <rect x="82" y="250" width="248" height="456" rx="18" fill="#F5F7FA" stroke="#E4E7EC" stroke-width="1" opacity="1"/>
  <g transform="translate(122 294) scale(0.24705882352941178)"><path fill-rule="evenodd" clip-rule="evenodd" d="M30 110L70 0H40L0 110V200H30L60 110H30ZM140 110L100 0H130L170 110V200H140L110 110H140Z" fill="#673AB8"/></g>
  <text x="178" y="326" font-family="Inter, -apple-system, BlinkMacSystemFont, Segoe UI, sans-serif" font-size="28" font-weight="820" fill="#172033" text-anchor="start" opacity="1">AnnHub</text>
  
    <rect x="114" y="376" width="176" height="38" rx="9" fill="transparent" stroke="none" stroke-width="1" opacity="1"/>
    <text x="138" y="401" font-family="Inter, -apple-system, BlinkMacSystemFont, Segoe UI, sans-serif" font-size="18" font-weight="600" fill="#526070" text-anchor="start" opacity="1">Highlights</text>
  
    <rect x="114" y="430" width="176" height="38" rx="9" fill="transparent" stroke="none" stroke-width="1" opacity="1"/>
    <text x="138" y="455" font-family="Inter, -apple-system, BlinkMacSystemFont, Segoe UI, sans-serif" font-size="18" font-weight="600" fill="#526070" text-anchor="start" opacity="1">Words</text>
  
    <rect x="114" y="484" width="176" height="38" rx="9" fill="#EEE7FF" stroke="none" stroke-width="1" opacity="1"/>
    <text x="138" y="509" font-family="Inter, -apple-system, BlinkMacSystemFont, Segoe UI, sans-serif" font-size="18" font-weight="800" fill="#673AB8" text-anchor="start" opacity="1">Vocabulary</text>
  
    <rect x="114" y="538" width="176" height="38" rx="9" fill="transparent" stroke="none" stroke-width="1" opacity="1"/>
    <text x="138" y="563" font-family="Inter, -apple-system, BlinkMacSystemFont, Segoe UI, sans-serif" font-size="18" font-weight="600" fill="#526070" text-anchor="start" opacity="1">Logseq</text>
  
    <rect x="114" y="592" width="176" height="38" rx="9" fill="transparent" stroke="none" stroke-width="1" opacity="1"/>
    <text x="138" y="617" font-family="Inter, -apple-system, BlinkMacSystemFont, Segoe UI, sans-serif" font-size="18" font-weight="600" fill="#526070" text-anchor="start" opacity="1">Settings</text>
  
  <text x="374" y="322" font-family="Inter, -apple-system, BlinkMacSystemFont, Segoe UI, sans-serif" font-size="34" font-weight="820" fill="#172033" text-anchor="start" opacity="1">Vocabulary</text>
  <text x="374" y="382" font-family="Inter, -apple-system, BlinkMacSystemFont, Segoe UI, sans-serif" font-size="20" font-weight="800" fill="#364152" text-anchor="start" opacity="1">Eudic sync</text>
  <rect x="374" y="408" width="318" height="42" rx="8" fill="#F8FAFC" stroke="#E4E7EC" stroke-width="1" opacity="1"/>
  <text x="394" y="435" font-family="Inter, -apple-system, BlinkMacSystemFont, Segoe UI, sans-serif" font-size="16" font-weight="500" fill="#667085" text-anchor="start" opacity="1">Configured token hidden for safety</text>
  <text x="374" y="500" font-family="Inter, -apple-system, BlinkMacSystemFont, Segoe UI, sans-serif" font-size="20" font-weight="800" fill="#364152" text-anchor="start" opacity="1">LLM provider</text>
  <rect x="374" y="526" width="318" height="42" rx="8" fill="#F8FAFC" stroke="#E4E7EC" stroke-width="1" opacity="1"/>
  <text x="394" y="553" font-family="Inter, -apple-system, BlinkMacSystemFont, Segoe UI, sans-serif" font-size="16" font-weight="500" fill="#667085" text-anchor="start" opacity="1">OpenAI-compatible endpoint</text>
  <rect x="750" y="370" width="360" height="216" rx="14" fill="#F8FAFC" stroke="#E4E7EC" stroke-width="1" opacity="1"/>
  <text x="782" y="420" font-family="Inter, -apple-system, BlinkMacSystemFont, Segoe UI, sans-serif" font-size="22" font-weight="820" fill="#172033" text-anchor="start" opacity="1">Snapshot status</text>
  <text x="782" y="470" font-family="Inter, -apple-system, BlinkMacSystemFont, Segoe UI, sans-serif" font-size="20" font-weight="700" fill="#364152" text-anchor="start" opacity="1">2,418 words synced</text>
  <text x="782" y="510" font-family="Inter, -apple-system, BlinkMacSystemFont, Segoe UI, sans-serif" font-size="20" font-weight="700" fill="#364152" text-anchor="start" opacity="1">Mastered words filtered</text>
  <rect x="782" y="540" width="140" height="40" rx="20" fill="#673AB8" stroke="none" stroke-width="1" opacity="1"/>
  <text x="852" y="566" font-family="Inter, -apple-system, BlinkMacSystemFont, Segoe UI, sans-serif" font-size="17" font-weight="800" fill="#ffffff" text-anchor="middle" opacity="1">Refresh</text>
  
</svg>
