
<svg xmlns="http://www.w3.org/2000/svg" width="440" height="280" viewBox="0 0 440 280">
  
  <defs>
    <linearGradient id="bg" x1="0" y1="0" x2="1" y2="1">
      <stop offset="0%" stop-color="#FAFBFC"/>
      <stop offset="52%" stop-color="#EFF5FF"/>
      <stop offset="100%" stop-color="#F8F3FF"/>
    </linearGradient>
    <linearGradient id="purple" x1="0" y1="0" x2="1" y2="1">
      <stop offset="0%" stop-color="#7C4DFF"/>
      <stop offset="100%" stop-color="#4B2E83"/>
    </linearGradient>
    <filter id="shadow" x="-20%" y="-20%" width="140%" height="150%">
      <feDropShadow dx="0" dy="18" stdDeviation="18" flood-color="#172033" flood-opacity="0.16"/>
    </filter>
    <filter id="softShadow" x="-30%" y="-30%" width="160%" height="180%">
      <feDropShadow dx="0" dy="10" stdDeviation="12" flood-color="#172033" flood-opacity="0.18"/>
    </filter>
  </defs>

  <rect x="0" y="0" width="440" height="280" rx="0" fill="#F7F9FC" stroke="none" stroke-width="1" opacity="1"/>
  
  <g transform="translate(34 42) scale(0.3176470588235294)"><path fill-rule="evenodd" clip-rule="evenodd" d="M30 110L70 0H40L0 110V200H30L60 110H30ZM140 110L100 0H130L170 110V200H140L110 110H140Z" fill="#673AB8"/></g>
  <text x="98" y="76" font-family="Inter, -apple-system, BlinkMacSystemFont, Segoe UI, sans-serif" font-size="34" font-weight="850" fill="#172033" text-anchor="start" opacity="1">AnnHub</text>
  <text x="38" y="136" font-family="Inter, -apple-system, BlinkMacSystemFont, Segoe UI, sans-serif" font-size="24" font-weight="780" fill="#172033" text-anchor="start" opacity="1">Capture web text</text>
  <text x="38" y="168" font-family="Inter, -apple-system, BlinkMacSystemFont, Segoe UI, sans-serif" font-size="18" font-weight="500" fill="#526070" text-anchor="start" opacity="1">Highlight, annotate, and sync.</text>
  <rect x="38" y="206" width="126" height="42" rx="21" fill="#673AB8" stroke="none" stroke-width="1" opacity="1"/>
  <text x="101" y="233" font-family="Inter, -apple-system, BlinkMacSystemFont, Segoe UI, sans-serif" font-size="14" font-weight="800" fill="#ffffff" text-anchor="middle" opacity="1">Chrome Extension</text>
  <rect x="286" y="92" width="118" height="116" rx="10" fill="#ffffff" stroke="#D7DCE3" stroke-width="1" opacity="1" filter="url(#softShadow)"/>
  <rect x="304" y="124" width="82" height="12" rx="6" fill="#FFEB3B" stroke="none" stroke-width="1" opacity="1"/>
  <rect x="304" y="152" width="58" height="12" rx="6" fill="#E9EDF2" stroke="none" stroke-width="1" opacity="1"/>
  <rect x="304" y="180" width="76" height="12" rx="6" fill="#E9EDF2" stroke="none" stroke-width="1" opacity="1"/>

</svg>
